<svg width="164" height="36" viewBox="0 0 164 36" fill="none" xmlns="http://www.w3.org/2000/svg">
<path d="M14.139 16.5711C16.0878 16.5711 17.6588 15.9543 18.8718 14.7002C20.0849 13.446 20.7212 11.5957 20.761 9.1285H21.7553V26.0286H20.761C20.6417 23.3764 20.0053 21.4232 18.8122 20.1279C17.619 18.8327 15.8889 18.1953 13.602 18.1953H12.6873V29.6471C12.6873 31.5591 13.0253 32.8544 13.6816 33.5123C14.3378 34.1702 15.71 34.458 17.798 34.3552V35.2393H0V34.3552C2.08803 34.458 3.40051 34.1291 3.9772 33.4095C4.5539 32.6899 4.8323 31.4357 4.8323 29.6471V5.65391C4.8323 3.6185 4.49424 2.30268 3.81812 1.72701C3.14199 1.15134 1.8494 0.863507 0 0.904626V0H27.9597V9.62193H27.0848C26.7666 6.78469 25.9314 4.79041 24.5592 3.63906C23.1871 2.48772 21.1388 1.89149 18.4343 1.89149H12.6077V16.5711H14.139ZM35.5761 10.8966C37.0278 10.8966 38.4198 11.1639 39.7323 11.719C41.0447 12.2741 42.218 13.076 43.2123 14.1451C44.2066 15.2142 45.0021 16.53 45.5986 18.0925C46.1952 19.6551 46.4935 21.4643 46.4935 23.4997C46.4935 25.8024 46.1356 27.735 45.3998 29.3181C44.664 30.9012 43.7691 32.1759 42.6953 33.1628C41.6214 34.1496 40.468 34.8692 39.2152 35.301C37.9624 35.7327 36.809 35.9589 35.7551 35.9589C34.4625 35.9589 33.1699 35.6916 31.8574 35.1776C30.5449 34.6636 29.3716 33.8823 28.3177 32.8338C27.2637 31.7853 26.4086 30.4694 25.7524 28.8863C25.0962 27.3033 24.7581 25.4529 24.7581 23.3558C24.7581 21.526 25.0365 19.8606 25.5734 18.3392C26.1103 16.8178 26.866 15.502 27.8205 14.4123C28.7751 13.3227 29.9086 12.4592 31.221 11.8218C32.5335 11.1845 34.0051 10.8966 35.5761 10.8966ZM35.6755 34.1702C36.9681 34.1702 37.9226 33.5328 38.5391 32.2376C39.1556 30.9423 39.4539 28.4957 39.4539 24.8978C39.4539 22.8212 39.4141 21.012 39.3544 19.4906C39.2948 17.9692 39.1357 16.6945 38.8772 15.687C38.6186 14.6796 38.2408 13.9189 37.7238 13.4255C37.2067 12.932 36.5107 12.6853 35.6159 12.6853C34.3233 12.6853 33.3886 13.3843 32.7722 14.803C32.1557 16.2216 31.8773 18.6682 31.8773 22.1633C31.8773 26.5631 32.1159 29.6676 32.5733 31.4769C33.0307 33.2861 34.0648 34.1702 35.6755 34.1702ZM56.5359 31.7236C56.5359 32.6282 56.7348 33.3067 57.1126 33.7179C57.4905 34.1291 58.1268 34.3552 58.9819 34.3552V35.2598H46.8117V34.3552C47.8855 34.3552 48.6412 34.1085 49.0986 33.6356C49.556 33.1628 49.7946 32.4021 49.7946 31.3741V4.21473C49.7946 2.89891 49.5758 2.01485 49.1185 1.56254C48.6611 1.11022 47.9054 0.884066 46.8117 0.904626V0H56.5359V31.7236ZM81.294 29.2975C82.4474 31.1479 83.3622 32.4432 84.0383 33.1628C84.7144 33.8824 85.3309 34.2935 85.9275 34.3552V35.2598H74.6521V34.3552C75.1692 34.2524 75.5271 34.1496 75.7458 34.0263C75.9646 33.9029 76.0441 33.6768 76.0441 33.3684C76.0441 33.1833 75.9845 32.9366 75.8652 32.6282C75.7458 32.3198 75.6066 32.032 75.4475 31.7441L71.0726 24.5688L69.9789 25.8641V31.0451C69.9789 32.1142 70.1778 32.9366 70.5755 33.4712C70.9732 34.0057 71.6891 34.2935 72.7232 34.3552V35.2598H60.2546V34.3552C61.4677 34.3963 62.283 34.1291 62.6608 33.5328C63.0387 32.9366 63.2375 32.032 63.2375 30.8395V4.35865C63.2375 3.04283 63.0188 2.13821 62.6012 1.60365C62.1836 1.0691 61.3881 0.842947 60.2546 0.925186V0H69.9789V23.4586L74.672 17.8047C75.4674 16.7973 76.0044 16.0571 76.2629 15.6048C76.5214 15.1525 76.6606 14.6591 76.6606 14.1451C76.6606 13.5077 76.4418 13.0554 76.0242 12.7676C75.6066 12.4797 74.9305 12.3564 74.0555 12.3564V11.4517H83.8792V12.3564C82.7855 12.5208 81.8111 12.8909 80.9162 13.4666C80.0213 14.0423 78.8083 15.2553 77.2373 17.1468L75.2089 19.5317L81.294 29.2975ZM92.0723 17.044C92.5893 17.5785 93.2654 18.072 94.0609 18.5037C94.8563 18.9355 95.7114 19.3672 96.6262 19.8195C97.5409 20.2718 98.4358 20.7447 99.3307 21.2793C100.226 21.8138 101.021 22.4306 101.717 23.1502C102.393 23.8698 102.91 24.6716 103.268 25.5146C103.626 26.3781 103.785 27.2827 103.785 28.2696C103.785 29.3798 103.586 30.3872 103.169 31.3329C102.751 32.2787 102.214 33.0805 101.498 33.7796C100.782 34.4786 99.967 35.0131 98.9926 35.4038C98.0182 35.7944 96.9841 35.9794 95.8506 35.9794C94.379 35.9794 93.0268 35.7122 91.8336 35.1776C90.6405 34.6431 89.7456 34.3758 89.2087 34.3758C88.8706 34.3758 88.5723 34.4991 88.3138 34.7459C88.0553 34.9926 87.8167 35.4038 87.578 35.9589H87.1405V27.4883H87.6775C88.5127 29.6265 89.5865 31.2713 90.8791 32.4432C92.1717 33.6151 93.6234 34.1907 95.254 34.1907C96.2682 34.1907 97.1233 33.9029 97.7796 33.3067C98.4358 32.7104 98.7739 32.0114 98.7739 31.1685C98.7739 30.6956 98.7142 30.305 98.575 29.9966C98.4358 29.6882 98.2369 29.3798 97.9585 29.0919C97.4017 28.5368 96.7057 28.0228 95.9103 27.5911C95.1148 27.1593 94.2597 26.707 93.4046 26.2958C92.5495 25.8846 91.6745 25.4323 90.8592 24.9594C90.0439 24.4866 89.328 23.9726 88.7314 23.3764C87.9559 22.554 87.4189 21.7316 87.0809 20.9092C86.7428 20.0868 86.5837 19.1822 86.5837 18.1748C86.5837 17.1468 86.7627 16.1805 87.1405 15.317C87.5184 14.4535 88.0354 13.6722 88.6916 13.0143C89.3479 12.3564 90.1234 11.8424 90.9984 11.4723C91.8734 11.1022 92.8478 10.8966 93.862 10.8966C95.2143 10.8966 96.3875 11.1433 97.3421 11.6368C98.2966 12.1302 99.0722 12.3769 99.629 12.3769C100.007 12.3769 100.365 12.2536 100.683 12.0069C101.001 11.7601 101.319 11.3901 101.637 10.8966H102.174V18.9355H101.618C100.902 17.0234 99.8875 15.502 98.6148 14.3712C97.3421 13.2404 95.8705 12.6853 94.2398 12.6853C93.3847 12.6853 92.6688 12.9115 92.0922 13.3844C91.5155 13.8572 91.2172 14.4329 91.2172 15.1319C91.2172 15.4609 91.2967 15.7898 91.4757 16.1393C91.6547 16.4889 91.8336 16.7767 92.0723 17.044ZM125.521 32.731C125.799 32.731 126.018 32.6488 126.197 32.5049C126.376 32.3609 126.575 32.0937 126.813 31.7236L127.251 32.1759C126.753 33.3684 126.018 34.2935 125.063 34.972C124.109 35.6299 123.015 35.9794 121.782 35.9794C120.509 35.9794 119.535 35.6299 118.839 34.9309C118.143 34.2319 117.725 33.2656 117.606 32.0114L115.2 33.9851C114.404 34.6225 113.549 35.1159 112.615 35.4654C111.68 35.815 110.805 36 109.97 36C108.697 36 107.643 35.5271 106.768 34.5814C105.893 33.6356 105.475 32.4637 105.475 31.0862C105.475 29.6265 106.072 28.2079 107.265 26.7893C108.458 25.3706 110.268 24.0548 112.714 22.8418L117.606 20.3746V15.8721C117.606 14.9674 117.328 14.2067 116.771 13.5899C116.214 12.9732 115.399 12.6853 114.305 12.6853C113.35 12.6853 112.555 12.8909 111.919 13.3021C111.282 13.7133 110.944 14.2067 110.944 14.803C110.944 15.317 111.203 15.7898 111.7 16.2421C112.217 16.6945 112.455 17.3729 112.455 18.2776C112.455 19.0999 112.157 19.7579 111.58 20.2718C111.004 20.7858 110.228 21.0531 109.254 21.0531C108.24 21.0531 107.384 20.7653 106.728 20.169C106.052 19.5934 105.734 18.8121 105.734 17.8458C105.734 16.8795 106.012 15.9749 106.569 15.1319C107.126 14.289 107.862 13.5488 108.816 12.9115C109.751 12.2741 110.845 11.7807 112.078 11.4106C113.311 11.0405 114.623 10.8761 115.995 10.8761C118.72 10.8761 120.748 11.4517 122.12 12.6031C123.492 13.7544 124.168 15.3375 124.168 17.3729V29.7293C124.168 30.5928 124.268 31.3124 124.467 31.8675C124.665 32.4226 125.023 32.731 125.521 32.731ZM117.606 22.1222C115.836 23.0885 114.444 24.0959 113.43 25.1445C112.416 26.193 111.899 27.4266 111.899 28.8247C111.899 29.6471 112.157 30.305 112.674 30.819C113.191 31.3329 113.788 31.6002 114.484 31.6002L117.606 30.2022V22.1222ZM161.872 31.4974C161.872 32.2787 162.051 32.916 162.429 33.4712C162.807 34.0057 163.324 34.2935 164 34.3552V35.2393H153.023V34.3552C153.818 34.2524 154.355 33.9235 154.673 33.3478C154.972 32.7721 155.131 31.9292 155.131 30.7984V16.9206C155.131 16.2627 154.972 15.6459 154.673 15.0702C154.375 14.4946 153.858 14.2067 153.162 14.2067C152.486 14.2067 151.85 14.4329 151.273 14.8646C150.696 15.317 150 16.1393 149.185 17.3318V31.1068C149.185 32.0731 149.344 32.8133 149.682 33.3272C150.02 33.8618 150.557 34.1907 151.293 34.3347V35.2393H140.415V34.3347C141.131 34.2113 141.668 33.8824 141.986 33.3478C142.304 32.8132 142.463 32.0114 142.463 30.9218V17.2496C142.463 16.2833 142.284 15.5431 141.946 15.0291C141.608 14.5151 141.071 14.2479 140.356 14.2479C139.699 14.2479 139.063 14.4946 138.446 14.988C137.83 15.4814 137.194 16.2627 136.537 17.3318V31.0451C136.537 32.1142 136.716 32.916 137.074 33.4095C137.432 33.9029 137.969 34.2319 138.665 34.3347V35.2393H127.529V34.3347C128.503 34.2113 129.12 33.8618 129.398 33.2861C129.677 32.7104 129.796 31.8881 129.796 30.819V16.016C129.796 14.8235 129.637 13.9395 129.299 13.3432C128.961 12.7676 128.384 12.4386 127.509 12.3564V11.4517H136.518V14.7824H136.577C137.591 13.446 138.625 12.4592 139.66 11.8424C140.694 11.2256 141.827 10.8966 143.06 10.8966C144.551 10.8966 145.804 11.2873 146.818 12.048C147.833 12.8292 148.469 13.8778 148.767 15.2347C149.682 13.8572 150.756 12.7881 151.989 12.0274C153.222 11.2667 154.534 10.8761 155.867 10.8761C157.696 10.8761 159.148 11.4723 160.222 12.6648C161.295 13.8572 161.813 15.4814 161.813 17.5374L161.872 31.4974Z" fill="#FFFFFF"/>
</svg>
